<?xml version="1.0" encoding="UTF-8" standalone="no"?>
<!-- Created with Inkscape (http://www.inkscape.org/) -->

<svg
   version="1.1"
   id="svg3639"
   xml:space="preserve"
   width="682.66669"
   height="682.66669"
   viewBox="0 0 682.66669 682.66669"
   xmlns="http://www.w3.org/2000/svg"
   xmlns:svg="http://www.w3.org/2000/svg"><defs
     id="defs3643"><clipPath
       clipPathUnits="userSpaceOnUse"
       id="clipPath3653"><path
         d="M 0,512 H 512 V 0 H 0 Z"
         id="path3651" /></clipPath></defs><g
     id="g3645"
     transform="matrix(1.3333333,0,0,-1.3333333,0,682.66667)"><g
       id="g3647"><g
         id="g3649"
         clip-path="url(#clipPath3653)"><g
           id="g3655"
           transform="translate(189.0679,56.2471)"><path
             d="m 0,0 -94.698,88.321 -9.744,9.088 c -9.568,8.925 -24.56,8.403 -33.485,-1.166 -8.925,-9.569 -8.403,-24.56 1.166,-33.485 L -26.714,-39.879 c 9.569,-8.925 24.56,-8.402 33.485,1.167 8.924,9.568 8.402,24.561 -1.167,33.484 z"
             style="fill:#ffc144;fill-opacity:1;fill-rule:evenodd;stroke:none"
             id="path3657" /></g><g
           id="g3659"
           transform="translate(143.9102,176.9355)"><path
             d="m 0,0 -49.54,-32.367 94.698,-88.321 c 102.858,57.592 52.665,157.583 57.03,206.636 0.932,10.473 7.896,73.981 8.828,84.454 0.972,10.928 -7.14,20.672 -18.027,21.652 -3.034,0.272 -5.725,-0.226 -8.119,-1.306 l 24.335,104.647 c 6.838,31.927 -29.999,40.222 -39.007,14.342 C 64.208,291.948 31.291,211.913 11.394,156.812 -2.918,117.178 -4.832,105.191 -2.914,63.453 Z"
             style="fill:#f5c6af;fill-opacity:1;fill-rule:evenodd;stroke:none"
             id="path3661" /></g><g
           id="g3663"
           transform="translate(265.9023,262.8838)"><path
             d="m 0,0 c 4.365,-49.054 -45.828,-149.044 57.03,-206.637 l 94.698,88.322 -49.541,32.367 2.914,63.453 c 1.918,41.738 0.005,53.724 -14.308,93.358 C 70.896,125.965 37.98,206 31.989,223.789 22.981,249.669 -13.856,241.375 -7.018,209.446 L 17.317,104.8 c -2.394,1.08 -5.084,1.578 -8.119,1.305 C -1.688,105.126 -9.8,95.382 -8.828,84.454 -7.896,73.98 -0.933,10.473 0,0"
             style="fill:#f5c6af;fill-opacity:1;fill-rule:evenodd;stroke:none"
             id="path3665" /></g><g
           id="g3667"
           transform="translate(417.6299,144.5684)"><path
             d="m 0,0 -94.697,-88.321 -5.605,-5.228 c -9.569,-8.925 -10.091,-23.916 -1.167,-33.485 8.925,-9.569 23.917,-10.091 33.486,-1.166 L 42.063,-25.563 C 51.631,-16.64 52.154,-1.647 43.229,7.922 34.305,17.49 19.313,18.013 9.744,9.088 Z"
             style="fill:#ffc144;fill-opacity:1;fill-rule:evenodd;stroke:none"
             id="path3669" /></g><g
           id="g3671"
           transform="translate(189.1689,56.3047)"><path
             d="m 0,0 c 102.723,57.601 52.565,157.541 56.929,206.579 0.932,10.473 7.896,73.981 8.828,84.454 0.972,10.929 -7.14,20.672 -18.027,21.652 C 36.843,313.664 30.387,304.714 26.167,294.594 15.101,268.055 5.449,239.187 -0.027,214.971 m -20.946,97.068 c -4.596,-12.052 -8.994,-23.804 -12.892,-34.597 -14.312,-39.633 -16.225,-51.619 -14.308,-93.359 l 2.914,-63.452 -48.908,-31.954 M 39.611,311.379 63.946,416.025 c 6.839,31.929 -29.999,40.223 -39.007,14.343 -1.963,-5.832 -6.822,-18.355 -13.167,-34.497"
             style="fill:none;stroke:#000000;stroke-width:20;stroke-linecap:round;stroke-linejoin:round;stroke-miterlimit:2.613;stroke-dasharray:none;stroke-opacity:1"
             id="path3673" /></g><g
           id="g3675"
           transform="translate(52.3076,119.0049)"><path
             d="m 0,0 c -9.569,8.925 -10.091,23.916 -1.167,33.485 8.925,9.569 23.917,10.091 33.485,1.166 L 142.364,-67.985 c 9.57,-8.924 10.092,-23.916 1.167,-33.486 -8.925,-9.568 -23.916,-10.091 -33.485,-1.166 z"
             style="fill:none;stroke:#000000;stroke-width:20;stroke-linecap:round;stroke-linejoin:round;stroke-miterlimit:22.926;stroke-dasharray:none;stroke-opacity:1"
             id="path3677" /></g><g
           id="g3679"
           transform="translate(322.7627,56.3428)"><path
             d="m 0,0 c -102.633,57.606 -52.498,157.514 -56.861,206.541 -0.931,10.473 -7.896,73.98 -8.827,84.454 -0.973,10.929 7.139,20.672 18.026,21.651 10.887,0.98 17.344,-7.97 21.564,-18.09 11.066,-26.539 20.717,-55.408 26.193,-79.623 m -39.638,96.408 -24.335,104.646 c -6.838,31.929 29.999,40.223 39.007,14.343 5.991,-17.79 38.907,-97.824 58.804,-152.926 14.312,-39.633 16.226,-51.619 14.308,-93.359 l -2.914,-63.452 49.192,-32.14"
             style="fill:none;stroke:#000000;stroke-width:20;stroke-linecap:round;stroke-linejoin:round;stroke-miterlimit:2.613;stroke-dasharray:none;stroke-opacity:1"
             id="path3681" /></g><g
           id="g3683"
           transform="translate(459.6924,119.0049)"><path
             d="m 0,0 c 9.569,8.925 10.091,23.916 1.167,33.485 -8.925,9.569 -23.917,10.091 -33.485,1.166 L -142.365,-67.985 c -9.569,-8.924 -10.091,-23.916 -1.166,-33.486 8.925,-9.568 23.916,-10.091 33.485,-1.166 z"
             style="fill:none;stroke:#000000;stroke-width:20;stroke-linecap:round;stroke-linejoin:round;stroke-miterlimit:22.926;stroke-dasharray:none;stroke-opacity:1"
             id="path3685" /></g><g
           id="g3687"
           transform="translate(184.4585,410.3066)"><path
             d="M 0,0 -0.003,-0.007"
             style="fill:none;stroke:#000000;stroke-width:20;stroke-linecap:round;stroke-linejoin:round;stroke-miterlimit:2.613;stroke-dasharray:none;stroke-opacity:1"
             id="path3689" /></g></g></g></g></svg>
