<?xml version="1.0" encoding="iso-8859-1"?>
<!-- Generator: Adobe Illustrator 19.0.0, SVG Export Plug-In . SVG Version: 6.00 Build 0)  -->
<svg version="1.1" id="Capa_1" xmlns="http://www.w3.org/2000/svg" xmlns:xlink="http://www.w3.org/1999/xlink" x="0px" y="0px"
	 viewBox="0 0 512.001 512.001" style="enable-background:new 0 0 512.001 512.001;" xml:space="preserve">
<path style="fill:#C15C08;" d="M349.51,321.61c0,41.66-19.43,75.43-43.4,75.43H50.9V246.18h255.21c14.83,0,27.92,12.92,35.74,32.64
	C346.68,290.98,349.51,305.72,349.51,321.61z"/>
<g>
	<path style="fill:#99490D;" d="M123,278.82v-0.01c-17.93-0.1-33.63-12.69-43.84-32.63h226.95c14.83,0,27.92,12.92,35.74,32.64H123z
		"/>
	<path style="fill:#99490D;" d="M349.51,321.61c0,41.66-19.43,75.43-43.4,75.43H176.05c-16.06-15.41-26.56-43.14-26.56-75.43
		c0-32.28,10.5-60.01,26.56-75.43h130.06C330.08,246.18,349.51,279.951,349.51,321.61z"/>
</g>
<ellipse style="fill:#FFCE94;" cx="50.897" cy="321.61" rx="43.4" ry="75.43"/>
<path style="fill:#DF781B;" d="M421.84,190.39c0,15.89-2.83,30.63-7.66,42.79c-7.82,19.72-20.91,32.64-35.74,32.64H123.23V114.96
	h255.21C402.41,114.96,421.84,148.73,421.84,190.39z"/>
<path style="fill:#C15C08;" d="M414.18,233.18c-7.82,19.72-20.91,32.64-35.74,32.64H161.82c9.51-18.57,23.79-30.76,40.18-32.43
	v-0.21L414.18,233.18L414.18,233.18z"/>
<ellipse style="fill:#FFCE94;" cx="123.23" cy="190.39" rx="43.4" ry="75.43"/>
<path style="fill:#DF781B;" d="M461.103,397.041c23.968,0,43.397-33.77,43.397-75.428s-19.43-75.428-43.397-75.428H205.887v150.857
	L461.103,397.041L461.103,397.041z"/>
<ellipse style="fill:#FFCE94;" cx="205.89" cy="321.61" rx="43.4" ry="75.43"/>
<path d="M50.897,280.549c4.142,0,7.5-3.357,7.5-7.5s-3.358-7.5-7.5-7.5c-17.812,0-27.132,28.203-27.132,56.063
	c0,4.143,3.358,7.5,7.5,7.5s7.5-3.357,7.5-7.5C38.765,294.668,47.779,280.549,50.897,280.549z"/>
<path d="M78.029,321.612c0-4.143-3.358-7.5-7.5-7.5s-7.5,3.357-7.5,7.5c0,26.944-9.014,41.063-12.132,41.063
	c-4.142,0-7.5,3.357-7.5,7.5s3.358,7.5,7.5,7.5C68.709,377.676,78.029,349.473,78.029,321.612z"/>
<path d="M240.976,122.459h137.466c8.815,0,17.745,6.892,24.499,18.907c1.377,2.449,3.922,3.826,6.545,3.826
	c1.244,0,2.506-0.31,3.668-0.963c3.611-2.03,4.893-6.603,2.863-10.213c-9.626-17.126-22.971-26.558-37.575-26.558H240.976
	c-4.142,0-7.5,3.357-7.5,7.5S236.833,122.459,240.976,122.459z"/>
<path d="M123.226,246.451c17.812,0,27.132-28.203,27.132-56.063c0-4.143-3.358-7.5-7.5-7.5s-7.5,3.357-7.5,7.5
	c0,26.944-9.014,41.063-12.132,41.063s-12.132-14.119-12.132-41.063s9.014-41.063,12.132-41.063c4.142,0,7.5-3.357,7.5-7.5
	s-3.358-7.5-7.5-7.5c-17.812,0-27.132,28.203-27.132,56.063S105.414,246.451,123.226,246.451z"/>
<path d="M216.219,158.09c-4.142,0-7.5,3.357-7.5,7.5s3.358,7.5,7.5,7.5h95.061c4.142,0,7.5-3.357,7.5-7.5s-3.358-7.5-7.5-7.5
	H216.219z"/>
<path d="M380.508,230.952c4.142,0,7.5-3.357,7.5-7.5s-3.358-7.5-7.5-7.5h-76.461c-4.142,0-7.5,3.357-7.5,7.5s3.358,7.5,7.5,7.5
	H380.508z"/>
<path d="M332.978,148.291c4.142,0,7.5-3.357,7.5-7.5s-3.358-7.5-7.5-7.5h-12.399c-4.142,0-7.5,3.357-7.5,7.5s3.358,7.5,7.5,7.5
	H332.978z"/>
<path d="M461.103,238.684h-41.086c6.047-13.944,9.322-30.724,9.322-48.296c0-7.941-0.675-15.808-2.007-23.378
	c-0.718-4.079-4.604-6.804-8.686-6.088c-4.08,0.718-6.805,4.606-6.087,8.686c1.181,6.716,1.78,13.707,1.78,20.78
	c0,0.948-0.018,1.891-0.039,2.833H279.249c-4.142,0-7.5,3.357-7.5,7.5s3.358,7.5,7.5,7.5h133.798
	c-1.684,11.396-4.99,21.832-9.708,30.463H205.887c-12.805,0-24.355,7.349-33.21,19.633H152.76
	c9.164-10.484,16.015-25.81,19.262-43.896h49.363c4.142,0,7.5-3.357,7.5-7.5s-3.358-7.5-7.5-7.5h-47.554
	c0.189-2.963,0.291-5.974,0.291-9.032c0-28.415-8.357-53.05-21.362-67.929h57.598c4.142,0,7.5-3.357,7.5-7.5s-3.358-7.5-7.5-7.5
	h-87.132c-28.541,0-50.897,36.427-50.897,82.929c0,18.164,3.423,34.777,9.281,48.296H50.897C22.356,238.684,0,275.11,0,321.612
	s22.356,82.929,50.897,82.929h344.127c4.142,0,7.5-3.357,7.5-7.5s-3.358-7.5-7.5-7.5h-88.911h-70.692
	c4.151-4.749,7.826-10.487,10.908-17.031h52.551c4.142,0,7.5-3.357,7.5-7.5s-3.358-7.5-7.5-7.5h-46.943
	c3.112-10.809,4.847-22.961,4.847-35.897c0-28.415-8.357-53.05-21.362-67.929h225.682c19.458,0,35.897,31.107,35.897,67.929
	c0,0.949-0.018,1.892-0.039,2.833H361.91c-4.142,0-7.5,3.357-7.5,7.5s3.358,7.5,7.5,7.5h133.77
	c-4.26,28.498-18.366,50.096-34.576,50.096h-35.461c-4.142,0-7.5,3.357-7.5,7.5s3.358,7.5,7.5,7.5h35.461
	c28.541,0,50.897-36.427,50.897-82.929C512.001,275.112,489.644,238.684,461.103,238.684z M123.226,122.459
	c19.458,0,35.897,31.107,35.897,67.929s-16.439,67.929-35.897,67.929s-35.897-31.107-35.897-67.929S103.768,122.459,123.226,122.459
	z M123.226,273.316h41.046c-4.265,9.843-7.231,21.328-8.53,33.859H114c-4.142,0-7.5,3.357-7.5,7.5s3.358,7.5,7.5,7.5h40.998
	c0.11,28.176,8.435,52.585,21.354,67.365h-95.92c4.151-4.749,7.826-10.487,10.908-17.031h52.551c4.142,0,7.5-3.357,7.5-7.5
	s-3.358-7.5-7.5-7.5H96.947c3.112-10.809,4.847-22.961,4.847-35.897c0-28.415-8.357-53.05-21.362-67.929h9.584
	C98.87,265.968,110.421,273.316,123.226,273.316z M15,321.612c0-36.821,16.439-67.929,35.897-67.929s35.897,31.107,35.897,67.929
	c0,36.822-16.439,67.929-35.897,67.929S15,358.434,15,321.612z M241.784,321.612c0,36.821-16.439,67.929-35.897,67.929
	s-35.897-31.107-35.897-67.929s16.439-67.929,35.897-67.929S241.784,284.791,241.784,321.612z"/>
<path d="M178.755,321.612c0,27.86,9.32,56.063,27.132,56.063s27.132-28.203,27.132-56.063c0-4.143-3.358-7.5-7.5-7.5
	s-7.5,3.357-7.5,7.5c0,26.944-9.014,41.063-12.132,41.063s-12.132-14.119-12.132-41.063c0-4.143-3.358-7.5-7.5-7.5
	S178.755,317.47,178.755,321.612z"/>
<path d="M401.441,296.813c0-4.143-3.358-7.5-7.5-7.5H267.882c-4.142,0-7.5,3.357-7.5,7.5s3.358,7.5,7.5,7.5h126.059
	C398.083,304.313,401.441,300.956,401.441,296.813z"/>
<path d="M411.506,354.409h-24.798c-4.142,0-7.5,3.357-7.5,7.5s3.358,7.5,7.5,7.5h24.798c4.142,0,7.5-3.357,7.5-7.5
	S415.648,354.409,411.506,354.409z"/>
<path d="M453.87,291.915c4.142,0,7.5-3.357,7.5-7.5s-3.358-7.5-7.5-7.5h-12.399c-4.142,0-7.5,3.357-7.5,7.5s3.358,7.5,7.5,7.5
	H453.87z"/>
<path d="M205.887,308.003c4.142,0,7.5-3.357,7.5-7.5v-14.478c0-4.143-3.358-7.5-7.5-7.5s-7.5,3.357-7.5,7.5v14.478
	C198.387,304.646,201.745,308.003,205.887,308.003z"/>
<g>
</g>
<g>
</g>
<g>
</g>
<g>
</g>
<g>
</g>
<g>
</g>
<g>
</g>
<g>
</g>
<g>
</g>
<g>
</g>
<g>
</g>
<g>
</g>
<g>
</g>
<g>
</g>
<g>
</g>
</svg>
